<?xml version="1.0" encoding="utf-8"?>
<svg viewBox="397.6 0.1 479 1273.7" xmlns="http://www.w3.org/2000/svg">
  <path d="M669.3 21.1c2.4 4.8 2.8 6.5 2.8 14.4 0 8.2-.3 9.6-3.2 15a46.5 46.5 0 01-14.6 15.9c-2.7 1.7-2.8 1.9-2.5 9.8l.3 8.1 4 1.2c6.2 1.8 14.3 6.3 15.5 8.5 1.6 3 0 5.1-6.8 9-5.7 3.3-6 3.7-6.4 7.8-.3 3.7 0 4.5 2.2 5.9 5.6 3.5 6 4.7 6 20 0 7.9.3 14.3.7 14.3.3 0-.7 57.3-.7 57.3v34l-3.5 3.2c-2 1.9-5 3.8-7 4.5l-3.4 1.1 3.3 4.7a52.8 52.8 0 017.6 14.2c0 .7-8.8 1-26.5 1-21.8 0-26.5-.2-26.5-1.4a36 36 0 016.6-13.8l3.3-4.7-4.4-2.1c-8.2-3.9-8.5-4.9-8.5-23.9v-16.7s-1.1-57.4-.7-57.4c.4 0 .7-6.5.7-14.4v-14.4l4-3.6c3.5-3.1 4-4.2 4-7.8 0-4.2-.1-4.4-5.6-7.2-6.4-3.4-9.3-6.9-7.7-9.5 1.7-2.7 7.3-6 13.7-8l6-1.9.4-8 .3-8.1-3.8-2.5c-14.3-9.1-20.8-26.5-15.3-40.9a40 40 0 0124.3-23.3c14.6-4.8 33 4.1 41.4 19.7zM611.6 272h51v798H675c9.3 0 12.5.3 12.5 1.2-2.1 6.3-5 12.3-8.6 17.8l-4 6.5 5.8 10.6 5.9 10.6 13.7.7c68.6 3.4 127.8 14.5 141.7 26.8l3.5 3v31.5l7 .7c7 .3 13.9 2.7 19.7 6.8 2 1.9 2.5 2 3.3.8.6-1 1 8 1 24.4v26l-4.8 4.6c-18.7 18.1-96 29.8-207.2 31.6-131.6 2.2-244.7-11.9-263.5-32.8l-3.5-3.8v-25.8c.2-14.1.4-24.9.7-24 .4 1.6.8 1.5 3.8-.8 4-3 12.6-5.9 20.8-6.8l5.7-.7v-15c0-8.3.5-15.9 1-16.9 4-7.4 41.3-18.5 80.6-24 15.7-2.2 35.2-4 53-5 26.7-1.6 24.5-.7 30-12.2l4.7-9.7-5.7-12.3c-3.1-6.8-5.6-12.7-5.6-13.1 0-.4 5.6-.7 12.5-.7h12.5V272z"/>
</svg>