<svg viewBox="0 0 547.7 817.3" xmlns="http://www.w3.org/2000/svg"><path d="M263.5 30.2s-.5-12.1 0-25.7c.2-4.7 8.2-6.6 9.3 0 .2 1 0 8 0 15.9v9.8l7 .7c8.8.8 10.7 1.8 11.3 5.9.3 1.7.7 14.7 1.1 28.7.5 24.3 2.3 47.7 4.3 56.8 1.3 5.7 3.6 9 7.7 10.9 3.4 1.6 3.6 1.6 11.3-2 4.3-2 8.3-3.7 9-3.7 2 0 4 4.2 4.8 9.6.7 5.9-1.5 11.9-4.7 12.9-2.2.7-2.3 1.5-.9 4.7l74 213.8 23 66.5 44 127c18 51.5 27 77.9 26.6 78.2a49 49 0 01-3.6-9c-4.7-13.5-21.8-61.7-50.7-142.7-25.4-71.1-31.6-88.8-56.5-159.5-15.7-44.8-60.9-176.2-60.8-177l-6.3.3c-8.3.5-13.8-1.1-18.4-5.1-5.8-5.1-7.3-10-8.9-28.1-2-23.3-3.9-29.6-8.9-29.6-2 0-2.4.5-3 5.2-.3 2.9-.2 9.3.3 14.3.5 4.9.7 10.6.4 12.6-.2 2.3.4 5.3 1.7 8.3 2 4 2.1 6 2 17.4l-.4 12.7-3 .3-3.3.3-.6 15.2a163223.5 163223.5 0 00-5.6 365.2l-1.3 89-.2 14.2 24 .7c68.5 1.9 169.6 10.9 226.5 20.2 20.3 3.2 33 6.5 33 8.3 0 1.7-31.2 16.7-53.5 25.7a62.2 62.2 0 00-11.8 5.4c1.4 0 47.6-15.5 57.6-19.3l6.8-2.7-.7 2.3c-2.6 8.7-26 35.7-43.9 50.7a352.8 352.8 0 01-167 75.9c-116.9 20-228.5-11.2-302-84.4-16-15.8-25.9-28.1-30.6-38a24.5 24.5 0 01-2.5-6.3c.2-.2 1.7.3 3.3 1.2 10.6 5.4 75.3 28.7 79.5 28.6-4-2.2-8.4-4-12.8-5.4-30.3-11.5-71-31.2-70-34 .6-2.2 7-5.6 14-7.6l9.1-3c1.5-.5 4.3-7.1 11.4-26.1L75.7 525c66.3-179.6 93.5-252 128.4-341l12.5-32-3.2-2.6c-2.9-2.5-3.2-3.2-3.5-10.1-.3-6.2 0-7.8 1.4-9.2 2.7-2.8 9.4-1.6 14 2.3 4 3.5 6 3.8 9.4 1.4 3.8-2.4 6.4-6.3 7-10.7 1.8-8.4 3-32 3-61.4V33.5l2.6-1a42 42 0 019.4-1.6l6.8-.7zm.7 7.2l-4 .6-.3 7.9c-.2 5.7.1 8.2 1 8.7a46 46 0 0016.2.3c1.3-.5 1.6-2.2 1.6-8.5 0-7.4 0-8-2.2-8.3-5-1-8.5-1.2-12.3-.7zM256.8 92c-2.6 3.4-3.8 9.5-5.6 28.3-.8 8.7-1.9 17.2-2.4 18.9-2.7 9.2-11.7 14.8-22.7 14-6.3-.3-6.4-.3-7.5 2.8l-9.4 27.5-14.4 42.2-12.2 35.5c-3.3 9.8-14.5 41.9-24.9 71.3l-25.3 72-32 90c-24.2 67.7-33.9 95.2-47.2 132.8-3.2 8.9-6 16-6.2 15.9-.3-.3 7.7-23.7 25.7-75.2l53-153 37-107a976 976 0 0013.6-40.2c-.2-.2-1 1.6-1.9 3.9L120.7 413l-67 176.5-21 55c-3.3 8.6-6 16-6 16.7 0 .7 2 .6 5.8-.3 15-2.9 30-5.2 45.2-7 47-4.8 94.2-7.7 141.4-8.5 23.7-.6 43.2-1.2 43.2-1.3l.8-242c.5-209.6.4-241.6-.8-241.6-3.5 0-3.5-24.6 0-31 1.6-3 2-5.8 2-19 0-8.5-.4-16.7-.9-18.3-1-3.5-3.9-3.6-6.6-.2zm239 559.5c.4.8 1 1.9 1 2.5 0 .5-.6.3-1-.5-.6-.8-1-2-1-2.5 0-.6.4-.3 1 .5z" paint-order="fill"/></svg>
