<svg viewBox="227.9 125.3 818.3 144.5" xmlns="http://www.w3.org/2000/svg"><path d="M606.9 151c.4 0 32.5 12 60.4 0 0 0 5.2-2.2 10.7-4.9 32-16 67.8-23 103.6-20.2 28.6 2.8 44.2 8.7 91.4 34.9 26 14.6 32 16.7 45 16.6a59 59 0 0019-2.8c8.5-2.5 12.7-4.5 35.9-17.1 8.3-4.5 9.2-4.7 15-4.3 9.6 1 18.4 5.3 25.2 12.1l3.7 4.2 2.7-3.3c1.5-1.7 3.6-3.2 4.7-3.2 5.3 0 20.6 12 21.9 17.2.9 3.7-2.5 10.4-9.3 17.9-9.5 10.4-13.7 11.4-17.2 3.9s-5.5-7.5-13.7-.5c-12 10.2-16.3 17.7-16.3 28.2 0 6.5 2 11 5.6 11.9 3.3.8 10-3.9 12.7-9 1.5-2.8 2.5-3.6 4.7-3.6 5.4.8 10.5 3 14.8 6.5l3.2 2.7-5.7 11c-3.6 7-7 11.9-9.1 13.6-9.1 7.2-25 6-29.1 4.9-21-5.4-26.1-33.5-11.8-64 5.9-12.5 5.7-13.7-2-12.1-2.7.6-13.6 3.9-24.3 7.3-25 7.9-37.5 10.5-51 10.5-12.7 0-20-1.8-50.5-12.7-33.3-11.8-48.2-15.7-69-17.8a171.3 171.3 0 00-100.7 23.3l-10.8 6.1s-29.5 12.1-59 .1l-8.7-5.1A173.9 173.9 0 00496 178.9c-21 2.2-35.4 5.9-70.1 18.2-30.5 10.7-36.6 12.2-49.4 12.3-13.5 0-26-2.6-51-10.5a529.5 529.5 0 00-24.3-7.3c-7.6-1.6-8-.4-2.4 11.1a66.7 66.7 0 018 32.8 39.3 39.3 0 01-6.4 23.8c-8.6 14.2-33 10.7-36.1 8.4-6.8-4.5-12-11-15.1-18.5l-5.7-11 3.2-2.7a29.9 29.9 0 0114.8-6.5c2.2 0 3.2.8 4.7 3.6 2.6 5.1 9.4 9.8 12.7 9 7.8-1.9 7.3-20.2-.7-30.3a85.4 85.4 0 00-10-9.8c-8.3-7.1-10.5-7-14 .5-3.3 7.4-6 7.1-15.1-2.3-8.2-8.1-12.2-15.2-11.1-19.5 1.3-5.3 16.6-17.2 22.3-17.2 1.4 0 2.6.9 3.4 2.4 1.8 4.1 3.8 4 7.5-.4a42.9 42.9 0 0124.7-11.8c6.7-.4 5.3-1 32.6 13.6a76 76 0 0038 10.5c9.5.1 11.3-.2 18.3-3 9.7-4.5 19.2-9.3 28.5-14.6 48.4-27 65.8-33 99.7-34.3 32.6-.7 64.9 6.6 94 21.2 5 2.4 9.4 4.4 9.8 4.4z"/></svg>
