<?xml version="1.0" encoding="utf-8"?>
<svg version="1.0" width="1706.7" height="1698.7" viewBox="0 0 1280 1274" xmlns="http://www.w3.org/2000/svg">
  <path d="M 669.277 21.1 C 671.677 25.9 672.077 27.6 672.077 35.5 C 672.077 43.7 671.777 45.1 668.877 50.5 C 665.777 56.4 659.677 63 654.277 66.4 C 651.577 68.1 651.477 68.3 651.777 76.2 L 652.077 84.3 L 656.077 85.5 C 662.277 87.3 670.377 91.8 671.577 94 C 673.177 97 671.577 99.1 664.777 103 C 659.077 106.3 658.777 106.7 658.377 110.8 C 658.077 114.5 658.377 115.3 660.577 116.7 C 666.177 120.2 666.577 121.4 666.577 136.7 C 666.577 144.6 666.877 151 667.277 151 C 667.577 151 672.477 148.8 677.977 146.1 C 710.025 130.054 745.848 123.069 781.577 125.9 C 810.177 128.7 825.777 134.6 872.977 160.8 C 899.077 175.4 904.977 177.5 918.077 177.4 C 924.521 177.511 930.939 176.565 937.077 174.6 C 945.477 172.1 949.677 170.1 972.877 157.5 C 981.177 153 982.077 152.8 987.977 153.2 C 997.484 154.236 1006.345 158.508 1013.077 165.3 L 1016.777 169.5 L 1019.477 166.2 C 1020.977 164.5 1023.077 163 1024.177 163 C 1029.477 163 1044.777 175 1046.077 180.2 C 1046.977 183.9 1043.577 190.6 1036.777 198.1 C 1027.277 208.5 1023.077 209.5 1019.577 202 C 1016.077 194.5 1014.077 194.5 1005.877 201.5 C 993.877 211.7 989.577 219.2 989.577 229.7 C 989.577 236.2 991.677 240.7 995.177 241.6 C 998.477 242.4 1005.277 237.7 1007.877 232.6 C 1009.377 229.8 1010.377 229 1012.577 229 C 1018.014 229.767 1023.134 232.016 1027.377 235.5 L 1030.577 238.2 L 1024.877 249.2 C 1021.277 256.2 1017.977 261.1 1015.777 262.8 C 1006.677 270 1005.877 271.2 1005.077 277.8 C 1004.577 282.1 1003.977 284 1002.977 284 C 1001.877 284 1001.577 286.1 1001.577 293.9 L 1001.577 303.7 L 1008.677 304.4 C 1017.477 305.2 1019.377 306.2 1019.977 310.3 C 1020.277 312 1020.677 325 1021.077 339 C 1021.577 363.3 1023.377 386.7 1025.377 395.8 C 1026.677 401.5 1028.977 404.8 1033.077 406.7 C 1036.477 408.3 1036.677 408.3 1044.377 404.7 C 1048.677 402.7 1052.677 401 1053.377 401 C 1055.277 401 1057.377 405.2 1058.177 410.6 C 1058.877 416.5 1056.677 422.5 1053.477 423.5 C 1051.277 424.2 1051.177 425 1052.577 428.2 C 1077.171 499.492 1101.838 570.759 1126.577 642 L 1149.577 708.5 L 1193.577 835.5 C 1211.577 887 1220.577 913.4 1220.177 913.7 C 1219.977 913.9 1218.377 909.9 1216.577 904.8 C 1211.877 891.2 1194.777 843 1165.877 762 C 1140.477 690.9 1134.277 673.2 1109.377 602.5 C 1093.677 557.7 1048.477 426.3 1048.577 425.5 L 1042.277 425.8 C 1033.977 426.3 1028.477 424.7 1023.877 420.7 C 1018.077 415.6 1016.577 410.8 1014.977 392.6 C 1012.977 369.3 1011.077 363 1006.077 363 C 1003.977 363 1003.677 363.5 1003.077 368.2 C 1002.777 371.1 1002.877 377.5 1003.377 382.5 C 1003.877 387.4 1004.077 393.1 1003.777 395.1 C 1003.577 397.4 1004.177 400.4 1005.477 403.4 C 1007.377 407.5 1007.577 409.5 1007.377 420.8 L 1007.077 433.5 L 1003.977 433.8 L 1000.777 434.1 L 1000.177 449.3 C 999.877 457.7 999.177 500 998.577 543.5 C 997.169 633.832 995.835 724.166 994.577 814.5 L 993.277 903.6 L 993.077 917.7 L 1017.077 918.4 C 1085.577 920.3 1186.677 929.3 1243.577 938.6 C 1263.877 941.8 1276.577 945.1 1276.577 946.9 C 1276.577 948.6 1245.377 963.6 1223.077 972.6 C 1215.977 975.5 1210.577 977.9 1211.277 978 C 1212.677 978 1258.877 962.5 1268.877 958.7 L 1275.677 956 L 1274.977 958.3 C 1272.377 967 1248.977 994 1231.077 1009 C 1183.077 1048.583 1125.462 1074.768 1064.077 1084.9 C 947.177 1104.9 835.577 1073.7 761.977 1000.5 C 745.977 984.7 736.177 972.4 731.477 962.6 C 729.877 959.3 728.777 956.4 728.977 956.2 C 729.177 956 730.677 956.5 732.277 957.4 C 742.877 962.8 807.577 986.1 811.777 986 C 807.692 983.796 803.406 981.988 798.977 980.6 C 768.677 969.1 727.977 949.4 728.877 946.6 C 729.577 944.4 735.977 941 742.977 939 L 752.077 936.1 C 753.577 935.5 756.377 928.9 763.477 909.9 L 804.577 798.5 C 870.877 618.9 898.077 546.6 932.977 457.5 L 945.477 425.5 L 942.277 422.9 C 939.377 420.4 939.077 419.7 938.777 412.8 C 938.477 406.6 938.677 405 940.177 403.6 C 942.877 400.8 949.577 402 954.077 405.9 C 958.177 409.4 960.077 409.7 963.577 407.3 C 967.36 404.926 969.917 401.017 970.577 396.6 C 972.377 388.2 973.577 364.6 973.577 335.2 L 973.577 307 L 976.177 306 C 977.577 305.4 981.777 304.7 985.577 304.4 L 992.377 303.7 L 991.877 289.1 C 991.277 270.3 990.877 268.8 986.677 267.7 C 965.777 262.3 960.577 234.2 974.877 203.7 C 980.777 191.2 980.577 190 972.877 191.6 C 970.177 192.2 959.277 195.5 948.577 198.9 C 923.577 206.8 911.077 209.4 897.577 209.4 C 884.877 209.4 877.577 207.6 847.077 196.7 C 813.777 184.9 798.877 181 778.077 178.9 C 742.912 176.113 707.744 184.25 677.377 202.2 L 666.577 208.3 L 666.577 242.3 L 663.077 245.5 C 661.177 247.4 658.077 249.3 656.177 250 L 652.677 251.1 L 655.977 255.8 C 659.577 260.9 663.577 268.3 663.577 270 C 663.577 270.7 654.777 271 637.077 271 C 615.277 271 610.577 270.8 610.577 269.6 C 611.763 264.58 614.014 259.874 617.177 255.8 L 620.477 251.1 L 616.077 249 C 607.877 245.1 607.577 244.1 607.577 225.1 L 607.577 208.4 L 598.877 203.3 C 565.777 184.2 529.177 175.5 496.077 178.9 C 475.177 181.1 460.677 184.8 425.977 197.1 C 395.477 207.8 389.377 209.3 376.577 209.4 C 363.077 209.4 350.677 206.8 325.577 198.9 C 314.877 195.5 303.977 192.2 301.277 191.6 C 293.677 190 293.377 191.2 298.877 202.7 C 305.077 215.9 306.977 223.3 306.977 235.5 C 307.077 247 305.377 253.4 300.477 259.3 C 297.477 263 289.177 268 286.077 268 C 283.577 268 282.877 271.6 282.377 288.1 L 281.877 303.7 L 288.877 304.4 C 292.777 304.7 296.977 305.6 298.277 306.3 L 300.677 307.5 L 300.977 345.5 C 301.477 391 302.477 399.3 307.877 404.8 L 311.277 408.2 L 317.377 405.1 C 321.477 403 324.977 402 327.977 402 C 334.277 402 335.577 403.7 335.577 411.8 C 335.577 419.3 334.277 422.1 329.677 424.5 L 326.877 425.9 L 331.177 438.2 L 358.577 517.5 L 390.677 610.2 L 408.477 661.7 L 431.577 728.5 L 470.177 839.9 C 483.677 878.6 494.477 910.5 494.277 910.7 C 493.977 910.9 492.377 906.9 490.577 901.8 C 485.477 887.1 473.377 853 445.877 776 L 405.077 661 L 380.077 590 C 363.677 543.4 328.477 440.6 325.477 430.2 C 324.477 427.1 324.377 427 318.677 427 C 304.577 427 296.077 423.2 291.877 414.9 C 289.877 411.1 289.277 407.4 288.077 393.1 C 286.477 374.9 285.177 367.7 283.077 366 C 279.777 363.2 279.877 396.8 283.177 403.1 C 285.177 406.9 286.277 421.8 285.177 429.4 C 284.477 433.8 284.377 433.9 280.277 434.2 L 276.077 434.5 L 276.077 446.2 L 276.377 687.9 L 276.577 917.7 L 296.377 918.4 C 356.478 920.693 416.461 925.43 476.177 932.6 L 500.177 935.5 C 502.377 935.7 509.777 936.9 516.777 938 C 538.777 941.5 551.677 944.7 552.277 946.7 C 552.977 948.6 513.077 967.8 493.677 975 C 490.077 976.3 487.677 977.5 488.177 977.7 C 506.961 972.207 525.539 966.036 543.877 959.2 C 548.977 957.2 551.577 956.6 551.577 957.4 C 551.577 959.7 544.177 970.9 536.377 980.4 C 516.69 1002.281 494.037 1021.299 469.077 1036.9 C 456.277 1044.9 433.377 1056.4 417.777 1062.9 C 337.968 1094.932 249.771 1099.505 167.077 1075.9 C 128.577 1064.4 89.677 1044.1 59.577 1019.9 C 40.06 1004.487 23.057 986.135 9.177 965.5 C 3.477 956.1 4.077 955.4 13.877 959.6 C 34.477 968.5 83.977 985.9 85.177 984.8 C 85.377 984.5 80.977 982.7 75.377 980.6 C 58.096 974.146 41.201 966.7 24.777 958.3 C 0.977 946.5 0.877 946.1 16.477 940 L 22.777 937.5 L 33.277 909.5 L 72.277 804 C 136.777 628.8 159.577 568.3 203.077 456.8 L 215.777 424.1 L 213.677 421.4 C 211.977 419.3 211.577 417.3 211.577 412 C 211.577 404.6 211.877 404.2 217.877 402.1 C 221.477 400.9 222.077 401 229.077 404.3 C 236.477 407.8 236.477 407.8 238.877 406 C 244.477 401.6 245.577 392.5 246.277 345.8 L 246.877 307.1 L 249.877 306.1 C 251.477 305.5 255.177 305 257.977 305 C 265.477 305 265.977 304.4 265.177 296.7 C 264.277 287.5 265.477 273 267.177 273.7 C 269.577 274.6 267.477 270 264.377 267.7 C 257.607 263.182 252.347 256.738 249.277 249.2 L 243.577 238.2 L 246.777 235.5 C 250.877 232.1 257.877 229 261.577 229 C 263.777 229 264.777 229.8 266.277 232.6 C 268.877 237.7 275.677 242.4 278.977 241.6 C 286.777 239.7 286.277 221.4 278.277 211.3 C 276.477 209 271.977 204.6 268.277 201.5 C 259.977 194.4 257.777 194.5 254.377 202 C 250.977 209.4 248.377 209.1 239.177 199.7 C 230.977 191.6 226.977 184.5 228.077 180.2 C 229.377 174.9 244.677 163 250.377 163 C 251.777 163 252.977 163.9 253.777 165.4 C 255.577 169.5 257.577 169.4 261.277 165 C 266.077 159.4 277.977 153.7 285.977 153.2 C 292.677 152.8 291.277 152.2 318.577 166.8 C 330.1 173.582 343.207 177.203 356.577 177.3 C 366.077 177.4 367.877 177.1 374.877 174.3 C 384.576 169.832 394.084 164.961 403.377 159.7 C 451.777 132.7 469.177 126.7 503.077 125.4 C 535.701 124.704 568.003 131.981 597.177 146.6 C 602.177 149 606.477 151 606.877 151 C 607.277 151 607.577 144.5 607.577 136.6 L 607.577 122.2 L 611.577 118.6 C 615.077 115.5 615.577 114.4 615.577 110.8 C 615.577 106.6 615.477 106.4 609.977 103.6 C 603.577 100.2 600.677 96.7 602.277 94.1 C 603.977 91.4 609.577 88.1 615.977 86.1 L 622.077 84.2 L 622.377 76.2 L 622.677 68.1 L 618.877 65.6 C 604.577 56.5 598.077 39.1 603.577 24.7 C 607.855 13.737 616.744 5.214 627.877 1.4 C 642.477 -3.4 660.977 5.5 669.277 21.1 Z M 993.077 310.9 L 989.077 311.5 L 988.777 319.4 C 988.577 325.1 988.877 327.6 989.777 328.1 C 995.117 329.158 1000.602 329.259 1005.977 328.4 C 1007.277 327.9 1007.577 326.2 1007.577 319.9 C 1007.577 312.5 1007.477 312 1005.377 311.6 C 1000.277 310.6 996.877 310.4 993.077 310.9 Z M 267.877 311.7 C 265.977 312.4 266.077 326.4 267.977 327.9 C 268.777 328.6 271.677 329 274.777 328.8 L 280.077 328.5 L 280.377 321 C 280.577 314.8 280.377 313.3 278.977 312.3 C 277.277 311 270.377 310.7 267.877 311.7 Z M 985.677 365.5 C 983.077 368.9 981.877 375 980.077 393.8 C 979.277 402.5 978.177 411 977.677 412.7 C 974.977 421.9 965.977 427.5 954.977 426.8 C 948.677 426.4 948.577 426.4 947.477 429.5 L 938.077 457 L 923.677 499.2 L 911.477 534.7 C 908.177 544.5 896.977 576.6 886.577 606 L 861.277 678 L 829.277 768 C 805.077 835.7 795.377 863.2 782.077 900.8 C 778.877 909.7 776.077 916.9 775.877 916.7 C 775.577 916.4 783.577 893 801.577 841.5 L 854.577 688.5 L 891.577 581.6 C 899.277 559.6 905.377 541.5 905.177 541.3 C 904.977 541.1 904.177 542.9 903.277 545.2 L 849.577 686.5 L 782.477 863 L 761.477 918.1 C 758.277 926.6 755.577 934.1 755.577 934.7 C 755.577 935.4 757.577 935.3 761.377 934.4 C 776.351 931.532 791.429 929.23 806.577 927.5 C 853.566 922.62 900.743 919.751 947.977 918.9 C 971.677 918.3 991.177 917.7 991.177 917.6 L 991.977 675.7 C 992.477 466 992.377 434 991.177 434 C 987.677 434 987.677 409.4 991.177 403 C 992.777 400 993.077 397.2 993.077 384 C 993.077 375.5 992.777 367.3 992.277 365.7 C 991.277 362.2 988.377 362.1 985.677 365.5 Z M 262.777 367.7 C 261.177 371.9 260.677 375.1 259.177 393.1 C 257.577 411.6 256.377 415.4 250.177 420.8 C 246.177 424.3 237.477 427.1 229.677 427.6 L 224.277 427.8 L 208.077 475.7 C 181.777 553.2 154.577 630.9 101.577 779.5 L 64.977 882.3 C 60.177 895.9 56.077 906.9 55.877 906.7 C 61.969 887.032 68.571 867.525 75.677 848.2 L 96.477 788.2 C 113.245 739.99 129.945 691.757 146.577 643.5 L 178.677 550.7 L 196.477 499.2 L 213.477 450.2 C 217.977 437.3 221.577 426.6 221.577 426.3 C 221.577 426.1 220.877 426 219.977 426.2 C 218.777 426.4 205.177 461.2 172.477 547 L 123.177 676.5 L 114.577 699 L 98.577 741 C 94.856 750.658 91.156 760.325 87.477 770 L 75.577 801.5 L 55.577 854 L 31.877 916.3 C 27.777 927.2 24.577 936.4 24.977 936.7 C 25.277 937 27.477 936.8 29.777 936.2 C 66.777 926.9 144.377 920.4 242.877 918.4 L 275.777 917.7 L 275.177 891.6 C 273.267 770.401 271.4 649.201 269.577 528 C 268.077 423.5 268.577 434.5 265.577 434.5 C 262.477 434.5 261.877 432 261.777 419.5 C 261.677 413.5 262.177 409.2 263.277 406.5 C 264.456 402.616 264.93 398.552 264.677 394.5 C 264.577 390.1 264.977 383.5 265.577 379.8 C 266.077 376.1 266.277 371.2 265.977 369 C 265.177 364.3 264.277 363.9 262.777 367.7 Z M 55.177 908.3 C 55.477 908.5 55.177 909.8 54.677 911.1 C 54.177 912.4 53.677 913 53.677 912.3 C 53.577 911.7 53.877 910.4 54.177 909.5 C 54.577 908.6 54.977 908.1 55.177 908.3 Z M 53.277 914.4 C 53.577 914.6 53.277 915.7 52.677 916.7 C 51.477 918.7 51.277 918.1 52.177 915.5 C 52.577 914.6 53.077 914.1 53.277 914.4 Z M 611.577 272 L 662.577 272 L 662.577 1070 L 675.077 1070 C 684.377 1070 687.577 1070.3 687.577 1071.2 C 685.5 1077.483 682.608 1083.468 678.977 1089 L 674.977 1095.5 L 680.777 1106.1 L 686.677 1116.7 L 700.377 1117.4 C 768.977 1120.8 828.177 1131.9 842.077 1144.2 L 845.577 1147.2 L 845.577 1178.7 L 852.577 1179.4 C 859.662 1179.721 866.503 1182.082 872.277 1186.2 C 874.277 1188.1 874.777 1188.2 875.577 1187 C 876.177 1186 876.577 1195 876.577 1211.4 L 876.577 1237.4 L 871.777 1242 C 853.077 1260.1 775.877 1271.8 664.577 1273.6 C 532.977 1275.8 419.877 1261.7 401.077 1240.8 L 397.577 1237 L 397.677 1211.2 C 397.777 1197.1 397.977 1186.3 398.277 1187.2 C 398.677 1188.8 399.077 1188.7 402.077 1186.4 C 406.077 1183.4 414.677 1180.5 422.877 1179.6 L 428.577 1178.9 L 428.577 1163.9 C 428.577 1155.6 429.077 1148 429.577 1147 C 433.577 1139.6 470.877 1128.5 510.177 1123 C 525.877 1120.8 545.377 1119 563.277 1118 C 589.877 1116.4 587.677 1117.3 593.177 1105.8 L 597.877 1096.1 L 592.177 1083.8 C 589.077 1077 586.577 1071.1 586.577 1070.7 C 586.577 1070.3 592.177 1070 599.077 1070 L 611.577 1070 Z M 496.577 916 C 497.1 916.919 497.407 917.945 497.477 919 C 497.477 920.6 495.777 917.4 495.677 915.5 C 495.677 914.9 496.077 915.2 496.577 916 Z M 498.577 922 C 499.077 922.8 499.577 923.9 499.577 924.5 C 499.577 925 499.077 924.8 498.577 924 C 498.077 923.2 497.577 922 497.577 921.5 C 497.577 920.9 498.077 921.2 498.577 922 Z M 1224.577 925 C 1225.077 925.8 1225.577 926.9 1225.577 927.5 C 1225.577 928 1225.077 927.8 1224.577 927 C 1224.077 926.2 1223.577 925 1223.577 924.5 C 1223.577 923.9 1224.077 924.2 1224.577 925 Z"/>
</svg>