<svg version="1.0" width="1706.7" height="1698.7" viewBox="0 0 1280 1274" xmlns="http://www.w3.org/2000/svg"><path d="M669.3 21.1c2.4 4.8 2.8 6.5 2.8 14.4 0 8.2-.3 9.6-3.2 15a46.5 46.5 0 01-14.6 15.9c-2.7 1.7-2.8 1.9-2.5 9.8l.3 8.1 4 1.2c6.2 1.8 14.3 6.3 15.5 8.5 1.6 3 0 5.1-6.8 9-5.7 3.3-6 3.7-6.4 7.8-.3 3.7 0 4.5 2.2 5.9 5.6 3.5 6 4.7 6 20 0 7.9.3 14.3.7 14.3.3 0 5.2-2.2 10.7-4.9 32-16 67.8-23 103.6-20.2 28.6 2.8 44.2 8.7 91.4 34.9 26 14.6 32 16.7 45 16.6a59 59 0 0019-2.8c8.5-2.5 12.7-4.5 35.9-17.1 8.3-4.5 9.2-4.7 15-4.3 9.6 1 18.4 5.3 25.2 12.1l3.7 4.2 2.7-3.3c1.5-1.7 3.6-3.2 4.7-3.2 5.3 0 20.6 12 21.9 17.2.9 3.7-2.5 10.4-9.3 17.9-9.5 10.4-13.7 11.4-17.2 3.9s-5.5-7.5-13.7-.5c-12 10.2-16.3 17.7-16.3 28.2 0 6.5 2 11 5.6 11.9 3.3.8 10-3.9 12.7-9 1.5-2.8 2.5-3.6 4.7-3.6 5.4.8 10.5 3 14.8 6.5l3.2 2.7-5.7 11c-3.6 7-7 11.9-9.1 13.6-9.1 7.2-10 8.4-10.7 15-.5 4.3-1.1 6.2-2.1 6.2-1.1 0-1.4 2.1-1.4 9.9v9.8l7 .7c8.9.8 10.8 1.8 11.4 5.9.3 1.7.7 14.7 1 28.7.6 24.3 2.4 47.7 4.4 56.8 1.3 5.7 3.6 9 7.7 10.9 3.4 1.6 3.6 1.6 11.3-2 4.3-2 8.3-3.7 9-3.7 1.9 0 4 4.2 4.8 9.6.7 5.9-1.5 11.9-4.7 12.9-2.2.7-2.3 1.5-1 4.7l74 213.8 23 66.5 44 127c18 51.5 27 77.9 26.7 78.2-.2.2-1.8-3.8-3.6-8.9-4.7-13.6-21.8-61.8-50.7-142.8-25.4-71.1-31.6-88.8-56.5-159.5-15.7-44.8-61-176.2-60.8-177l-6.3.3c-8.3.5-13.8-1.1-18.4-5.1-5.8-5.1-7.3-9.9-9-28.1-2-23.3-3.8-29.6-8.8-29.6-2.1 0-2.4.5-3 5.2-.3 2.9-.2 9.3.3 14.3.5 4.9.7 10.6.4 12.6-.2 2.3.4 5.3 1.7 8.3 1.9 4.1 2 6.1 1.9 17.4l-.3 12.7-3.1.3-3.2.3-.6 15.2a163223.5 163223.5 0 00-5.6 365.2l-1.3 89.1-.2 14.1 24 .7c68.5 1.9 169.6 10.9 226.5 20.2 20.3 3.2 33 6.5 33 8.3 0 1.7-31.2 16.7-53.5 25.7a62.2 62.2 0 00-11.8 5.4c1.4 0 47.6-15.5 57.6-19.3l6.8-2.7-.7 2.3c-2.6 8.7-26 35.7-44 50.7a352.8 352.8 0 01-167 75.9c-116.8 20-228.4-11.2-302-84.4-16-15.8-25.8-28.1-30.5-37.9a24.5 24.5 0 01-2.5-6.4c.2-.2 1.7.3 3.3 1.2 10.6 5.4 75.3 28.7 79.5 28.6-4.1-2.2-8.4-4-12.8-5.4-30.3-11.5-71-31.2-70.1-34 .7-2.2 7-5.6 14-7.6l9.2-2.9c1.5-.6 4.3-7.2 11.4-26.2l41-111.4c66.4-179.6 93.6-251.9 128.5-341l12.5-32-3.2-2.6c-3-2.5-3.2-3.2-3.5-10.1-.3-6.2-.1-7.8 1.4-9.2 2.7-2.8 9.4-1.6 13.9 2.3 4 3.5 6 3.8 9.5 1.4 3.8-2.4 6.3-6.3 7-10.7 1.8-8.4 3-32 3-61.4V307l2.6-1a42 42 0 019.4-1.6l6.8-.7-.5-14.6c-.6-18.8-1-20.3-5.2-21.4-21-5.4-26.1-33.5-11.8-64 5.9-12.5 5.7-13.7-2-12.1-2.7.6-13.6 3.9-24.3 7.3-25 7.9-37.5 10.5-51 10.5-12.7 0-20-1.8-50.5-12.7-33.3-11.8-48.2-15.7-69-17.8a171.3 171.3 0 00-100.7 23.3l-10.8 6.1v34l-3.5 3.2c-2 1.9-5 3.8-7 4.5l-3.4 1.1 3.3 4.7a52.8 52.8 0 017.6 14.2c0 .7-8.8 1-26.5 1-21.8 0-26.5-.2-26.5-1.4a36 36 0 016.6-13.8l3.3-4.7-4.4-2.1c-8.2-3.9-8.5-4.9-8.5-23.9v-16.7l-8.7-5.1A173.9 173.9 0 00496 178.9c-21 2.2-35.4 5.9-70.1 18.2-30.5 10.7-36.6 12.2-49.4 12.3-13.5 0-26-2.6-51-10.5a529.5 529.5 0 00-24.3-7.3c-7.6-1.6-8-.4-2.4 11.1a66.7 66.7 0 018 32.8c.2 11.5-1.5 17.9-6.4 23.8-3 3.7-11.3 8.7-14.4 8.7-2.5 0-3.2 3.6-3.7 20.1l-.5 15.6 7 .7c3.9.3 8 1.2 9.4 1.9l2.4 1.2.3 38c.5 45.5 1.5 53.8 6.9 59.3l3.4 3.4 6-3.1c4.2-2.1 7.7-3.1 10.7-3.1 6.3 0 7.6 1.7 7.6 9.8 0 7.5-1.3 10.3-6 12.7l-2.7 1.4 4.3 12.3 27.4 79.3 32 92.7 17.9 51.5 23 66.8 38.7 111.4c13.5 38.7 24.3 70.6 24 70.8-.2.2-1.8-3.8-3.6-8.9-5.1-14.7-17.2-48.8-44.7-125.8L405 661l-25-71a9454.6 9454.6 0 01-54.6-159.8c-1-3.1-1.1-3.2-6.8-3.2-14.1 0-22.6-3.8-26.8-12.1-2-3.8-2.6-7.5-3.8-21.8-1.6-18.2-3-25.4-5-27.1-3.3-2.8-3.2 30.8 0 37.1 2 3.8 3.2 18.7 2 26.3-.6 4.4-.7 4.5-4.8 4.8l-4.2.3v11.7l.3 241.7.2 229.8 19.8.7c60 2.3 120 7 179.8 14.2l24 2.9c2.2.2 9.6 1.4 16.6 2.5 22 3.5 34.9 6.7 35.5 8.7.7 1.9-39.2 21.1-58.6 28.3-3.6 1.3-6 2.5-5.5 2.7a811.7 811.7 0 0055.7-18.5c5-2 7.7-2.6 7.7-1.8 0 2.3-7.4 13.5-15.2 23a315.4 315.4 0 01-67.3 56.5c-12.8 8-35.7 19.5-51.3 26-79.8 32-168 36.6-250.7 13a326.2 326.2 0 01-107.5-56 240 240 0 01-50.4-54.4c-5.7-9.4-5.1-10.1 4.7-5.9 20.6 8.9 70 26.3 71.3 25.2.2-.3-4.2-2.1-9.8-4.2a479.7 479.7 0 01-50.6-22.3C1 946.5.8 946.1 16.5 940l6.3-2.5 10.5-28 39-105.5c64.5-175.2 87.3-235.7 130.8-347.2l12.7-32.7-2.1-2.7c-1.7-2.1-2.1-4.1-2.1-9.4 0-7.4.3-7.8 6.3-9.9 3.6-1.2 4.2-1.1 11.2 2.2 7.4 3.5 7.4 3.5 9.8 1.7 5.6-4.4 6.7-13.5 7.4-60.2l.6-38.7 3-1c1.6-.6 5.3-1.1 8-1.1 7.6 0 8-.6 7.3-8.3-1-9.2.3-23.7 2-23 2.4.9.3-3.7-2.8-6-6.8-4.5-12-11-15.1-18.5l-5.7-11 3.2-2.7a29.9 29.9 0 0114.8-6.5c2.2 0 3.2.8 4.7 3.6 2.6 5.1 9.4 9.8 12.7 9 7.8-1.9 7.3-20.2-.7-30.3a85.4 85.4 0 00-10-9.8c-8.3-7.1-10.5-7-14 .5-3.3 7.4-6 7.1-15.1-2.3-8.2-8.1-12.2-15.2-11.1-19.5 1.3-5.3 16.6-17.2 22.3-17.2 1.4 0 2.6.9 3.4 2.4 1.8 4.1 3.8 4 7.5-.4a42.9 42.9 0 0124.7-11.8c6.7-.4 5.3-1 32.6 13.6a76 76 0 0038 10.5c9.5.1 11.3-.2 18.3-3 9.7-4.5 19.2-9.3 28.5-14.6 48.4-27 65.8-33 99.7-34.3 32.6-.7 64.9 6.6 94 21.2 5 2.4 9.4 4.4 9.8 4.4.4 0 .7-6.5.7-14.4v-14.4l4-3.6c3.5-3.1 4-4.2 4-7.8 0-4.2-.1-4.4-5.6-7.2-6.4-3.4-9.3-6.9-7.7-9.5 1.7-2.7 7.3-6 13.7-8l6-1.9.4-8 .3-8.1-3.8-2.5c-14.3-9.1-20.8-26.5-15.3-40.9a40 40 0 0124.3-23.3c14.6-4.8 33 4.1 41.4 19.7zM993 310.9l-4 .6-.3 7.9c-.2 5.7 0 8.2 1 8.7a46 46 0 0016.2.3c1.3-.5 1.6-2.2 1.6-8.5 0-7.4-.1-7.9-2.2-8.3-5.1-1-8.5-1.2-12.3-.7zm-725.2.8c-2 .7-1.8 14.7 0 16.2.9.7 3.8 1.1 6.9.9l5.3-.3.3-7.5c.2-6.2 0-7.7-1.4-8.7-1.7-1.3-8.6-1.6-11.1-.6zm717.8 53.8c-2.6 3.4-3.8 9.5-5.6 28.3-.8 8.7-2 17.2-2.4 18.9-2.7 9.2-11.7 14.8-22.7 14.1-6.3-.4-6.4-.4-7.5 2.7L938 457l-14.4 42.2-12.2 35.5c-3.3 9.8-14.5 41.9-25 71.3l-25.2 72-32 90c-24.2 67.7-34 95.2-47.2 132.8-3.2 8.9-6 16.1-6.2 15.9-.3-.3 7.7-23.7 25.7-75.2l53-153 37-106.9a976 976 0 0013.6-40.3c-.2-.2-1 1.6-2 3.9l-53.6 141.3L782.5 863l-21 55.1c-3.2 8.5-6 16-6 16.6 0 .7 2 .6 5.9-.3 15-2.9 30-5.2 45.2-6.9 47-4.9 94.1-7.7 141.4-8.6 23.7-.6 43.2-1.2 43.2-1.3l.8-241.9c.5-209.7.4-241.7-.8-241.7-3.5 0-3.5-24.6 0-31 1.6-3 1.9-5.8 1.9-19 0-8.5-.3-16.7-.8-18.3-1-3.5-4-3.6-6.6-.2zm-723 2.2c-1.5 4.2-2 7.4-3.5 25.4-1.6 18.5-2.8 22.3-9 27.7-4 3.5-12.7 6.3-20.5 6.8l-5.4.2-16.2 47.9c-26.3 77.5-53.5 155.2-106.5 303.8L65 882.3a364 364 0 01-9.1 24.4 1188 1188 0 0119.8-58.5l20.8-60 50-144.7 32.2-92.8 17.8-51.5 17-49c4.5-12.9 8-23.6 8-23.9 0-.2-.6-.3-1.5-.1-1.2.2-14.8 35-47.5 120.8l-49.3 129.5-8.6 22.5-16 42-11.1 29-12 31.5-20 52.5L32 916.3a150.1 150.1 0 00-7 20.4c.4.3 2.6.1 4.9-.5 37-9.3 114.6-15.8 213-17.8l33-.7-.6-26.1c-2-121.2-3.8-242.4-5.6-363.6-1.5-104.5-1-93.5-4-93.5-3.1 0-3.7-2.5-3.8-15-.1-6 .4-10.3 1.5-13a34 34 0 001.4-12c-.1-4.4.3-11 .9-14.7.5-3.7.7-8.6.4-10.8-.8-4.7-1.7-5.1-3.2-1.3zM55.3 908.3c.3.2 0 1.5-.5 2.8-.5 1.3-1 1.9-1 1.2-.1-.6.2-1.9.5-2.8.4-.9.8-1.4 1-1.2zm-2 6.1c.4.2 0 1.3-.5 2.3-1.2 2-1.4 1.4-.5-1.2.4-.9.9-1.4 1-1.1zM611.7 272h51v798H675c9.3 0 12.5.3 12.5 1.2-2.1 6.3-5 12.3-8.6 17.8l-4 6.5 5.8 10.6 5.9 10.6 13.7.7c68.6 3.4 127.8 14.5 141.7 26.8l3.5 3v31.5l7 .7c7 .3 13.9 2.7 19.7 6.8 2 1.9 2.5 2 3.3.8.6-1 1 8 1 24.4v26l-4.8 4.6c-18.7 18.1-96 29.8-207.2 31.6-131.6 2.2-244.7-11.9-263.5-32.8l-3.5-3.8v-25.8c.2-14.1.4-24.9.7-24 .4 1.6.8 1.5 3.8-.8 4-3 12.6-5.9 20.8-6.8l5.7-.7v-15c0-8.3.5-15.9 1-16.9 4-7.4 41.3-18.5 80.6-24 15.7-2.2 35.2-4 53-5 26.7-1.6 24.5-.7 30-12.2l4.7-9.7-5.7-12.3c-3.1-6.8-5.6-12.7-5.6-13.1 0-.4 5.6-.7 12.5-.7h12.5zm-115 644c.5 1 .8 2 .9 3 0 1.6-1.7-1.6-1.8-3.5 0-.6.4-.3.9.5zm2 6c.5.8 1 1.9 1 2.5 0 .5-.5.3-1-.5s-1-2-1-2.5c0-.6.5-.3 1 .5zm726 3c.5.8 1 1.9 1 2.5 0 .5-.5.3-1-.5s-1-2-1-2.5c0-.6.5-.3 1 .5z"/></svg>
